<?xml version="1.0" encoding="iso-8859-1"?>
<!-- Generator: Adobe Illustrator 16.0.3, SVG Export Plug-In . SVG Version: 6.00 Build 0)  -->
<svg version="1.2" baseProfile="tiny" id="Layer_1" xmlns="http://www.w3.org/2000/svg" xmlns:xlink="http://www.w3.org/1999/xlink"
	 x="0px" y="0px" width="32px" height="25px" viewBox="0 0 32 25" xml:space="preserve">
<path fill="#FFFFFF" d="M19.607,16.155c-0.604,2.542-1.196,4.992-2.489,6.926c-0.394,0.592-0.792,1.337-1.466,1.656
	c-1-4.937,1.084-9.092,1.912-13.243c-1.055-2.06-0.397-5.552,1.852-5.945c3.262-0.575,2.402,3.206,1.85,4.965
	c-0.304,0.963-0.851,1.885-0.767,2.944c0.181,2.228,3.099,2.371,4.591,1.226c2.143-1.644,2.76-4.814,2.553-7.419
	C27.325,3.3,22.65,1.328,18.523,2.913c-2.125,0.819-4.059,2.697-4.338,5.456c-0.147,1.455,0.17,2.614,0.765,3.434
	c0.092,0.124,0.401,0.343,0.446,0.674c0.094,0.673-0.322,1.399-0.701,1.901c-2.113-0.586-3.205-2.412-3.379-4.719
	c-0.398-5.255,4.088-9.253,9.373-9.625c5.638-0.396,10.109,2.732,10.523,7.295c0.309,3.392-0.941,6.807-2.933,8.643
	c-1.493,1.379-4.673,2.73-7.271,1.41C20.434,17.087,20.18,16.729,19.607,16.155z"/>
</svg>
