<?xml version="1.0" encoding="iso-8859-1"?>
<!-- Generator: Adobe Illustrator 16.0.3, SVG Export Plug-In . SVG Version: 6.00 Build 0)  -->
<svg version="1.2" baseProfile="tiny" id="Layer_1" xmlns="http://www.w3.org/2000/svg" xmlns:xlink="http://www.w3.org/1999/xlink"
	 x="0px" y="0px" width="34px" height="25px" viewBox="0 0 34 25" xml:space="preserve">
<path fill="#FFFFFF" d="M31.016,11.572c-0.971,0-1.908-0.136-2.793-0.384c0-0.03,0-0.06,0-0.091c0.154,0.02,0.315,0.03,0.479,0.03
	c1.3,0,2.445-0.629,3.129-1.587c-0.612,0.246-1.283,0.382-1.987,0.382c-0.63,0-1.233-0.109-1.788-0.308
	c-0.145-0.658-0.377-1.301-0.709-1.913c-2.406-4.452-6.177-3.977-6.177-3.977s2.776-0.54,2.646-1.276
	C23.686,1.71,21.12,2.852,21.12,2.852s1.424-0.77,1.224-1.096c-0.189-0.311-2.305,0.961-2.305,0.961s0.348-0.492,0.215-0.635
	c-0.134-0.143-1.818,1.271-3.108,3.364c-1.291,2.094-1.803,4.013-1.803,4.013s-0.664-0.812-2.166-1.824
	c-1.606-1.078-8.432-3.583-8.432-3.583S4.483,4.901,5.447,6.391c0.606,0.94,1.946,1.487,1.946,1.487s-0.552,0-0.98,0.06
	c-0.398,0.056-0.88,0.167-0.88,0.167S5.396,9.21,6.65,10.164c1.253,0.952,2.341,1.048,2.341,1.048s-0.682,0.049-1.197,0.225
	c-0.534,0.184-0.92,0.644-0.92,0.644s0.409,0.794,1.268,1.365c1.134,0.753,2.604,0.515,2.604,0.515s-1.316,0.338-1.23,1.372
	c0.123,1.518,2.347,1.211,2.347,1.211c-1.527,1.587-3.729,2.512-6.158,2.512c-2.196,0-4.213-0.74-5.703-2.072
	c0,0,8.422,11.141,22.605,3.168c2.902-1.633,4.925-4.441,5.47-7.353c0.256,0.049,0.521,0.076,0.792,0.076
	c1.206,0,2.283-0.52,3.009-1.336C31.591,11.557,31.305,11.572,31.016,11.572z"/>
</svg>
